<svg fill="#222" width="122.88" height="122.88" xml:space="preserve" xmlns="http://www.w3.org/2000/svg"><path fill-rule="evenodd" clip-rule="evenodd" d="M61.44 0c33.926 0 61.44 27.514 61.44 61.44s-27.514 61.439-61.44 61.439C27.513 122.88 0 95.366 0 61.44S27.513 0 61.44 0zm-8.753 90.555H69.44v14.81H52.687v-14.81zm16.744-7.595h-16.74c-1.665-20.343-5.159-29.414-5.159-49.729 0-7.492 6.075-13.57 13.567-13.57s13.57 6.078 13.57 13.57c.001 20.304-3.539 29.402-5.238 49.729z"/><path style="fill:#000;stroke-width:.119649" d="M52.598 81.212c-.447-5.182-1.105-10.258-2.692-20.789-.7-4.636-1.144-7.942-1.447-10.758-.626-5.815-1.047-15.164-.794-17.657.687-6.78 6.093-11.934 12.829-12.232 3.998-.177 7.55 1.257 10.351 4.18 1.99 2.077 3.238 4.637 3.628 7.444.16 1.145.163 4.655.008 8.204-.276 6.328-.805 11.45-1.988 19.264-1.831 12.09-2.352 15.953-2.798 20.759-.141 1.513-.28 2.873-.31 3.02l-.053.27H52.745l-.147-1.705z"/><path style="fill:#eee;stroke-width:.119649" d="M52.706 97.933v-7.358h16.631V105.292H52.706zM52.774 82.409a185.46 185.46 0 0 1-.313-3.141c-.319-3.405-.897-7.962-1.73-13.64-1.817-12.395-2.17-15.104-2.508-19.264-.33-4.058-.428-6.034-.499-10.05-.058-3.271-.037-4.144.118-5.087.952-5.755 5.302-10.205 10.937-11.188 1.298-.226 3.422-.227 4.71-.002 4.686.821 8.798 4.39 10.336 8.97.581 1.732.657 2.447.657 6.21-.001 6.811-.551 13.4-1.866 22.334-1.453 9.877-2.101 14.399-2.375 16.578-.274 2.172-.904 8.178-.904 8.61 0 .156-1.01.178-8.249.178H52.84z"/><path style="fill:#eee;stroke-width:.119649" d="M52.706 97.933v-7.358h16.631V105.292H52.706z"/></svg>
